<?xml version="1.0" encoding="UTF-8"?>
<!DOCTYPE svg PUBLIC "-//W3C//DTD SVG 1.1//EN" "http://www.w3.org/Graphics/SVG/1.1/DTD/svg11.dtd">
<!-- Creator: CorelDRAW 2019 (64-Bit) -->
<svg xmlns="http://www.w3.org/2000/svg" xml:space="preserve" width="172.227mm" height="172.227mm" version="1.1" style="shape-rendering:geometricPrecision; text-rendering:geometricPrecision; image-rendering:optimizeQuality; fill-rule:evenodd; clip-rule:evenodd"
viewBox="0 0 172.2272 172.2271"
 xmlns:xlink="http://www.w3.org/1999/xlink"
 xmlns:xodm="http://www.corel.com/coreldraw/odm/2003">
 <defs>
  <style type="text/css">
   <![CDATA[
    .str0 {stroke:#09154B;stroke-width:0.7056;stroke-miterlimit:22.9256}
    .fil4 {fill:black}
    .fil1 {fill:#00603D}
    .fil3 {fill:#09154B}
    .fil2 {fill:#D53740}
    .fil0 {fill:white}
   ]]>
  </style>
 </defs>
 <g id="Layer_x0020_1">
  <metadata id="CorelCorpID_0Corel-Layer"/>
  <g id="_700099376">
   <path class="fil0 str0" d="M171.8744 86.1136c0,47.394 -38.3667,85.7607 -85.7608,85.7607 -47.3941,0 -85.7608,-38.3667 -85.7608,-85.7607 0,-47.3941 38.3667,-85.7608 85.7608,-85.7608 47.3941,0 85.7608,38.3667 85.7608,85.7608z"/>
   <path class="fil1" d="M22.5742 86.4607c0,-0.8679 0.1736,-1.7359 0.1736,-2.604l-19.7909 0c0,0.8681 -0.1736,1.7361 -0.1736,2.604 0,29.3392 15.2773,55.2064 38.3666,69.9628l11.458 -16.1453c-18.0548,-11.2843 -30.0337,-31.0753 -30.0337,-53.8175z"/>
   <path class="fil2" d="M169.4439 86.4607c0,-0.8679 -0.1736,-1.7359 -0.1736,-2.604l-19.7909 0c0,0.8681 0.1736,1.7361 0.1736,2.604 0,22.395 -11.6315,42.186 -29.1657,53.4703l9.0274 17.7077c23.7839,-14.7564 39.9292,-40.9707 39.9292,-71.178z"/>
   <path class="fil0" d="M86.1136 150.0001c-12.3259,0 -23.7838,-3.6457 -33.5057,-9.7219l-11.458 16.1453c13.0205,8.333 28.2976,13.1939 44.9637,13.1939 15.7979,0 30.7281,-4.5137 43.2275,-12.1523l-9.0274 -17.7077c-9.8955,6.4234 -21.527,10.2427 -34.2001,10.2427z"/>
   <path class="fil3" d="M86.1136 22.9214c34.2001,0 61.9768,27.0824 63.3658,60.9353l19.7909 0c-1.3889,-44.79 -38.0195,-80.5526 -83.1567,-80.5526 -45.1373,0 -81.7678,35.9362 -83.1567,80.7262l19.7909 0c1.3889,-34.0265 29.1656,-61.1089 63.3658,-61.1089z"/>
   <path class="fil0" d="M12.5052 71.01c-1.7361,-0.3472 -2.4304,-0.3472 -2.604,0.6944 -0.1736,1.0416 0.8679,1.3888 3.8192,1.9096 3.4722,0.6945 4.3402,0.6945 4.5138,-0.3472 0.1736,-1.0416 -0.868,-1.3888 -2.7777,-1.736l0.5208 -2.6041 0.3471 0c2.4305,0.5208 4.1667,1.5625 3.6457,4.861 -0.6944,3.4721 -3.2984,3.2984 -6.7705,2.604 -2.9512,-0.5208 -5.9025,-1.2152 -5.2082,-5.2081 0.5208,-2.4305 1.7362,-3.4721 4.5138,-2.9513l0.5208 0.1736 -0.5208 2.6041z"/>
   <polygon class="fil0" points="11.9844,57.9896 13.026,55.5591 21.8798,59.2048 23.4423,55.5591 25.5255,56.4272 22.7478,62.6769 "/>
   <path class="fil0" d="M30.2128 41.8444c1.9098,1.3888 2.9513,2.9512 1.0418,5.5553 -1.9097,2.6041 -3.6458,2.0833 -5.5554,0.6944l-6.4235 -4.5137 1.5626 -2.2569 7.1177 5.0346c0.6945,0.5208 1.3889,0.5208 1.9096,0 0.3472,-0.5208 0.1736,-1.2152 -0.5207,-1.7361l-7.1179 -5.0345 1.5626 -2.2569 6.4232 4.5138z"/>
   <path class="fil0" d="M30.7336 29.5184l3.2986 -2.7777c1.5624,-1.3888 3.1249,-1.5624 4.5137,0 0.8681,1.0417 1.0417,2.2569 0.3472,3.2985 0.6945,-0.5208 1.9096,-1.0416 3.6458,0.6944 0.8679,1.0417 1.7359,2.7777 -0.6944,5.0346l-3.2986 2.6041 -7.8123 -8.8539zm5.2082 1.7361l0 0 0.5208 -0.5209c0.6945,-0.6944 0.6945,-1.3888 0.1737,-1.9096 -0.3473,-0.5208 -1.0417,-0.6944 -1.9096,0l-0.5209 0.5208 1.736 1.9097zm3.2986 3.8193l0 0 0.6944 -0.5208c0.8679,-0.6945 0.6944,-1.5625 0.1736,-2.0833 -0.868,-1.0416 -1.7361,-1.0416 -2.2569,-0.3472l-0.6944 0.5208 2.0833 2.4305z"/>
   <path class="fil0" d="M56.4273 12.6787l3.8192 -1.3888c2.604,-0.868 4.1666,0 5.5553,3.9929 1.389,3.9929 1.5626,6.0762 -1.9096,7.2914l-3.6457 1.2153 -3.8192 -11.1108zm5.9025 8.3331l0 0 0.6944 -0.1736c1.2153,-0.3472 1.3889,-1.0417 0.3472,-4.3401 -0.868,-2.7777 -1.3888,-3.2985 -2.7777,-2.9513l-0.6944 0.1736 2.4305 7.2914z"/>
   <polygon class="fil0" points="73.9613,7.9914 80.7319,7.297 81.0792,9.3803 77.0861,9.9011 77.2598,12.3315 81.0792,11.8107 81.2528,14.0676 77.6071,14.4148 77.7807,17.1925 82.1207,16.6717 82.2943,18.9285 75.3502,19.6229 "/>
   <path class="fil0" d="M90.9744 7.1234l4.3403 0.5208c2.9512,0.3472 3.2984,2.4305 3.1248,3.9929 -0.1736,2.0833 -1.3888,3.4721 -4.1666,3.1249l-1.2152 -0.1736 -0.5207 4.6873 -2.7777 -0.3472 1.2151 -11.8051zm2.2569 5.3817l0 0 0.6944 0c1.0417,0.1736 1.389,-0.5208 1.5625,-1.3888 0.1736,-0.868 -0.1735,-1.5624 -1.2153,-1.736l-0.6944 0 -0.3472 3.1248z"/>
   <g>
    <path class="fil0" d="M108.335 22.9214c-3.4722,-1.2152 -3.125,-3.6457 -1.9096,-7.1178 1.2151,-3.4721 2.4304,-5.5553 5.9024,-4.3401 3.6457,1.2152 2.9513,3.9929 1.9098,7.1178 -1.0417,2.9513 -2.2569,5.5554 -5.9026,4.3401zm0.5208 -1.736l0 0c1.0416,0.3472 1.5624,-0.5208 2.6041,-3.6457 1.0415,-3.1249 1.2151,-4.1665 0.1736,-4.5137 -1.0417,-0.3473 -1.5625,0.5208 -2.6041,3.6457 -0.868,3.1248 -1.0417,4.1665 -0.1736,4.5137z"/>
   </g>
   <path class="fil0" d="M125.3483 17.5397l3.9928 2.4304c1.9097,1.2153 1.9097,2.9513 1.0417,4.3402 -0.8681,1.3888 -1.9096,1.736 -3.2986,1.3888 1.389,1.2152 0.8682,2.0833 0,3.4721 -1.2151,1.9097 -1.2151,2.2569 -1.0416,2.6041l0 0.1736 -2.4304 -1.5625c0,-0.5208 0.3472,-1.0416 1.0417,-2.2568 1.0416,-1.7361 1.0416,-2.2569 0.3472,-2.7777l-0.8681 -0.5208 -2.6041 4.1665 -2.2568 -1.5624 6.0762 -9.8955zm-0.1736 5.5553l0 0 0.6944 0.5208c0.8679,0.5209 1.5625,0 2.0833,-0.5208 0.5208,-0.6944 0.5208,-1.3888 -0.3472,-2.0832l-0.6946 -0.5208 -1.7359 2.604z"/>
   <polygon class="fil0" points="139.4103,30.7336 137.6741,28.9976 139.2367,27.4352 144.792,32.9905 143.2295,34.553 141.4936,32.8169 134.7229,39.5875 132.8133,37.5042 "/>
   <polygon class="fil0" points="142.6361,49.2548 152.3494,42.5459 150.7708,40.2605 141.0577,46.9693 "/>
   <polygon class="fil0" points="157.1179,50.8718 158.3332,53.6495 150.521,58.5104 159.5484,56.2536 160.5901,58.8576 148.7849,61.1145 147.3961,57.9896 "/>
   <g>
    <path class="fil0" d="M152.2571 73.9613c-0.6946,-3.6457 1.5623,-4.5138 5.2081,-5.2082 3.6457,-0.6944 6.0762,-0.6944 6.7706,2.9513 0.6943,3.8193 -2.0834,4.6873 -5.2083,5.2081 -3.1248,0.5209 -6.076,0.8681 -6.7704,-2.9512zm1.7359 -0.3473l0 0c0.1736,1.0417 1.2153,1.0417 4.5138,0.5209 3.1249,-0.5209 4.1664,-0.8681 3.9928,-2.0833 -0.1736,-1.0416 -1.2151,-1.0416 -4.5136,-0.5208 -3.1249,0.6944 -4.1666,1.0416 -3.993,2.0832z"/>
   </g>
   <polygon class="fil0" points="17.5398,99.1339 17.0189,96.7034 19.1021,96.3562 20.6647,103.8212 18.5814,104.342 18.0606,101.9115 8.6858,103.8212 8.165,101.2171 "/>
   <g>
    <path class="fil0" d="M22.9215 134.8965c-2.2568,-2.9513 -0.6945,-4.6874 2.2568,-6.9442 2.9513,-2.2569 5.2081,-3.2985 7.465,-0.5208 2.4305,3.1248 0.3472,5.0345 -2.2569,6.9442 -2.604,2.0832 -5.0345,3.6457 -7.4649,0.5208zm1.5624 -1.0417l0 0c0.6944,0.8681 1.5625,0.3472 4.1666,-1.5624 2.6041,-1.9097 3.2985,-2.7777 2.6041,-3.6457 -0.6946,-0.868 -1.5625,-0.3472 -4.1666,1.5624 -2.6041,1.9097 -3.2984,2.7777 -2.6041,3.6457z"/>
   </g>
   <path class="fil0" d="M141.4936 131.9452c-1.389,-1.0416 -2.0833,-1.3889 -2.6041,-0.6944 -0.6944,0.868 0,1.5624 2.4304,3.6457 2.6041,2.2568 3.4721,2.7776 4.1665,1.9096 0.6944,-0.6944 -0.1736,-1.5624 -1.5624,-2.7777l1.736 -2.0832 0.3472 0.3472c1.9097,1.736 2.9513,3.4721 0.6945,6.0762 -2.2569,2.7776 -4.5137,1.2152 -7.2914,-1.0417 -2.257,-1.9096 -4.5138,-3.9929 -1.9098,-7.1178 1.5626,-1.9096 3.2985,-2.2568 5.3818,-0.3472l0.3472 0.3472 -1.7359 1.7361z"/>
   <path class="fil0" d="M151.2153 104.5156l0.868 -3.2985 12.1525 0 -0.6944 2.7777 -2.2569 -0.1736 -0.6944 2.7777 2.0831 0.868 -0.6944 2.7777 -10.7635 -5.729zm2.4305 -1.0416l0 0 4.861 2.2568 0.5207 -1.9096 -5.3817 -0.3472z"/>
   <polygon class="fil4" points="66.8436,151.2153 69.6211,151.9097 67.3644,161.2844 71.1836,162.1524 70.6629,164.4093 64.0659,162.6732 "/>
   <path class="fil4" d="M105.5573 159.5484c0.5209,2.2568 0.1736,4.1665 -2.9512,4.8609 -3.125,0.6944 -4.1666,-1.0416 -4.6874,-3.2985l-1.5625 -7.8122 2.7777 -0.5208 1.7361 8.5066c0.1736,0.868 0.6943,1.3888 1.3889,1.2152 0.6944,-0.1736 1.0416,-0.6944 0.6944,-1.736l-1.7362 -8.5066 2.7777 -0.5209 1.5625 7.8123z"/>
   <path class="fil2" d="M130.73 103.9948c-6.9442,18.0549 -24.6518,30.9017 -45.1372,30.9017 -26.7351,0 -48.4357,-21.7006 -48.4357,-48.4358 0,-26.735 21.7006,-48.4356 48.4357,-48.4356 20.659,0 38.3666,13.0203 45.3109,31.2488l9.5481 0c-7.2913,-23.263 -29.1655,-40.2763 -54.859,-40.2763 -31.7696,0 -57.4632,25.6935 -57.4632,57.4631 0,31.7697 25.6936,57.4632 57.4632,57.4632 25.5199,0 47.2205,-16.666 54.6854,-39.9291 0,0 -9.5482,0 -9.5482,0z"/>
   <path class="fil2" d="M86.9816 45.4901l0 9.5482c1.9097,0 3.8192,0.3472 5.729,0.6944l0 61.2825 0 9.7218c3.9928,-0.6944 7.8122,-2.0832 11.4578,-3.8193l0 -10.9371 0 -51.0397c2.9513,2.0833 5.5554,4.6873 7.6387,7.8122l10.5899 0c-6.4235,-13.3676 -19.7909,-22.7422 -35.4154,-23.263z"/>
   <path class="fil2" d="M62.8505 64.5866c2.7777,-2.9513 6.2498,-5.3818 9.8956,-7.1178l0 57.1159c-3.8194,-1.7361 -7.1179,-4.1665 -9.8956,-7.1178l0 -42.8803zm20.8327 -14.4092l0 0c0,-2.2569 -1.7361,-3.9929 -3.993,-3.9929 -0.1736,0 -0.3472,0 -0.5208,0 -0.1735,0 -0.1735,0 -0.3471,0 -0.1736,0 -0.1736,0 -0.3472,0 -12.4997,2.2568 -23.0896,10.0691 -28.8185,20.8326 -0.1736,0.3472 -0.1736,0.868 -0.1736,1.2152 0,2.2569 1.5625,3.9929 3.6458,3.9929 0.3472,0 0.5208,0 0.868,-0.1736l0 24.999 0 1.0416 0 2.4305c-0.3472,0 -0.5208,-0.1736 -0.868,-0.1736 -2.0833,0 -3.6458,1.736 -3.6458,3.9929 0,0.3472 0,0.6944 0.1736,1.0416 5.7289,10.9371 16.3188,18.923 28.9921,21.0062 0.1736,0 0.3472,0 0.3472,0l0.1735 0c0.1736,0 0.3472,0 0.5208,0 2.2569,0 3.993,-1.736 3.993,-3.9929l0 -72.2195c0,0 0,0 0,0z"/>
  </g>
 </g>
</svg>
